<svg width="25" height="72" viewBox="0 0 25 72" fill="none" xmlns="http://www.w3.org/2000/svg">
<path d="M0.599609 12C0.599609 5.37258 5.97219 0 12.5996 0C19.227 0 24.5996 5.37258 24.5996 12C24.5996 18.6274 19.227 24 12.5996 24C5.97219 24 0.599609 18.6274 0.599609 12Z" fill="#22A06B"/>
<path fill-rule="evenodd" clip-rule="evenodd" d="M12.1292 7.52865L8.46255 11.1946C8.33769 11.3199 8.26758 11.4895 8.26758 11.6663C8.26758 11.8431 8.33769 12.0128 8.46255 12.138C8.52441 12.1999 8.59788 12.2491 8.67876 12.2826C8.75963 12.3162 8.84633 12.3334 8.93388 12.3334C9.02144 12.3334 9.10814 12.3162 9.18901 12.2826C9.26989 12.2491 9.34336 12.1999 9.40522 12.138L11.9339 9.60932V16C11.9339 16.1768 12.0041 16.3464 12.1291 16.4714C12.2542 16.5964 12.4237 16.6666 12.6006 16.6666C12.7774 16.6666 12.9469 16.5964 13.072 16.4714C13.197 16.3464 13.2672 16.1768 13.2672 16V9.60932L15.7959 12.138C15.8578 12.1999 15.9313 12.249 16.0123 12.2825C16.0932 12.3159 16.1799 12.3331 16.2675 12.3331C16.355 12.3331 16.4417 12.3158 16.5226 12.2823C16.6035 12.2487 16.677 12.1996 16.7389 12.1376C16.8008 12.0757 16.8499 12.0022 16.8834 11.9213C16.9168 11.8404 16.9341 11.7536 16.934 11.6661C16.934 11.5785 16.9167 11.4918 16.8832 11.4109C16.8496 11.33 16.8005 11.2565 16.7386 11.1946L13.0719 7.52865C13.0101 7.46653 12.9367 7.41728 12.8558 7.38375C12.7749 7.35022 12.6881 7.33308 12.6006 7.33332C12.513 7.33308 12.4262 7.35022 12.3453 7.38375C12.2644 7.41728 12.191 7.46653 12.1292 7.52865Z" fill="white"/>
<rect x="12.0996" y="32" width="1" height="40" rx="0.5" fill="#091E42" fill-opacity="0.14"/>
</svg>
