<svg width="25" height="72" viewBox="0 0 25 72" fill="none" xmlns="http://www.w3.org/2000/svg">
<path d="M0.599609 12C0.599609 5.37258 5.97219 0 12.5996 0C19.227 0 24.5996 5.37258 24.5996 12C24.5996 18.6274 19.227 24 12.5996 24C5.97219 24 0.599609 18.6274 0.599609 12Z" fill="#EF5C48"/>
<path fill-rule="evenodd" clip-rule="evenodd" d="M14.7234 8.93331L12.6007 11.0566L10.4767 8.93265C10.4132 8.87054 10.3278 8.83593 10.2389 8.8363C10.1501 8.83668 10.065 8.87201 10.002 8.93465L9.53536 9.40198C9.50341 9.43262 9.47794 9.46937 9.46046 9.51004C9.44298 9.55071 9.43385 9.59448 9.4336 9.63875C9.43335 9.68302 9.44199 9.72688 9.45901 9.76775C9.47604 9.80861 9.50109 9.84564 9.53269 9.87665L11.656 11.9993L9.53336 14.1233C9.47134 14.1869 9.43685 14.2724 9.43735 14.3612C9.43784 14.45 9.47329 14.5351 9.53602 14.598L10.0027 15.0646C10.14 15.2026 10.3467 15.198 10.4774 15.0673L12.6014 12.944L14.724 15.0673C14.7876 15.1293 14.8731 15.1638 14.9619 15.1633C15.0507 15.1628 15.1358 15.1274 15.1987 15.0646L15.666 14.598C15.6979 14.5673 15.7233 14.5305 15.7408 14.4898C15.7582 14.4491 15.7673 14.4053 15.7674 14.3611C15.7676 14.3168 15.7589 14.2729 15.7418 14.2321C15.7248 14.1913 15.6997 14.1543 15.668 14.1233L13.544 11.9993L15.668 9.87665C15.7301 9.81314 15.7647 9.72773 15.7644 9.6389C15.764 9.55007 15.7287 9.46496 15.666 9.40198L15.1994 8.93531C15.1681 8.90329 15.1308 8.87779 15.0896 8.86029C15.0484 8.84278 15.0041 8.83361 14.9594 8.83331C14.9155 8.83367 14.8721 8.84269 14.8317 8.85985C14.7913 8.87701 14.7547 8.90198 14.724 8.93331H14.7234Z" fill="white"/>
<rect x="12.0996" y="32" width="1" height="40" rx="0.5" fill="#091E42" fill-opacity="0.14"/>
</svg>
